<svg xmlns="http://www.w3.org/2000/svg" viewBox="0 0 300 400" width="300" height="400">
<defs>
<radialGradient id="eb-jogo_boss" cx="0.4" cy="0.35" r="0.8"><stop offset="0" stop-color="#e0453f"/><stop offset="0.6" stop-color="#4a0c0e"/><stop offset="1" stop-color="#050507"/></radialGradient>
<radialGradient id="ea-jogo_boss" cx="0.5" cy="0.5" r="0.5"><stop offset="0" stop-color="#ff3b30" stop-opacity="0.45"/><stop offset="1" stop-color="#000" stop-opacity="0"/></radialGradient>
</defs>
<circle cx="150" cy="200" r="160" fill="url(#ea-jogo_boss)"/>
<text x="150" y="250" text-anchor="middle" font-family="'Hiragino Mincho ProN','Yu Mincho','Noto Serif JP','IPAMincho',serif" font-size="110" font-weight="700" fill="#000" fill-opacity="0.35">漏瑚</text>
<path d="M50,400 C60,310 100,290 150,290 C200,290 240,310 250,400z" fill="#3a2a1e"/><path d="M84,280 L112,120 L188,120 L216,280z" fill="#8c6c4b" stroke="#ffb347" stroke-opacity=".6" stroke-width="3"/><path d="M112,120 q38,-26 76,0" fill="#ff7a2e"/><path d="M124,112 q10,-40 26,-56 q-4,30 10,44 q10,-24 8,-50 q22,24 14,62z" fill="#ffb347"/>
<circle cx="150" cy="200" r="22" fill="#fff6dc"/><circle cx="150" cy="200" r="9" fill="#250d02"/>
<path d="M90,96 l14,-34 l16,26 l14,-38 l16,30 l16,-30 l14,38 l16,-26 l14,34" fill="none" stroke="#e8433a" stroke-width="5" stroke-linejoin="round"/>
</svg>
