<svg xmlns="http://www.w3.org/2000/svg" viewBox="0 0 300 400" width="300" height="400">
<defs>
<radialGradient id="eb-transfigured" cx="0.4" cy="0.35" r="0.8"><stop offset="0" stop-color="#3f8fe0"/><stop offset="0.6" stop-color="#0b2a52"/><stop offset="1" stop-color="#050507"/></radialGradient>
<radialGradient id="ea-transfigured" cx="0.5" cy="0.5" r="0.5"><stop offset="0" stop-color="#9fd0ff" stop-opacity="0.45"/><stop offset="1" stop-color="#000" stop-opacity="0"/></radialGradient>
</defs>
<circle cx="150" cy="200" r="160" fill="url(#ea-transfigured)"/>
<text x="150" y="250" text-anchor="middle" font-family="'Hiragino Mincho ProN','Yu Mincho','Noto Serif JP','IPAMincho',serif" font-size="150" font-weight="700" fill="#000" fill-opacity="0.35">改</text>
<path d="M80,283 l1,34" stroke="#0b0b10" stroke-width="7" stroke-linecap="round"/><path d="M108,279 l6,34" stroke="#0b0b10" stroke-width="7" stroke-linecap="round"/><path d="M136,279 l-4,34" stroke="#0b0b10" stroke-width="7" stroke-linecap="round"/><path d="M164,275 l-4,34" stroke="#0b0b10" stroke-width="7" stroke-linecap="round"/><path d="M192,280 l6,34" stroke="#0b0b10" stroke-width="7" stroke-linecap="round"/><path d="M220,286 l-4,34" stroke="#0b0b10" stroke-width="7" stroke-linecap="round"/><path d="M244,220 Q227,241 216,258 Q204,275 188,290 Q172,306 149,310 Q126,313 108,298 Q90,283 73,266 Q56,250 54,225 Q52,200 62,179 Q72,159 77,133 Q83,108 107,106 Q130,104 150,106 Q169,107 189,113 Q209,120 220,139 Q231,158 246,179 Q261,200 244,220z" fill="url(#eb-transfigured)" stroke="#9fd0ff" stroke-opacity=".5" stroke-width="3"/>
<ellipse cx="150" cy="180" rx="16" ry="13" fill="#fff6dc"/><circle cx="150" cy="180" r="7" fill="#120808"/><path d="M104,236 q46,30 92,0 q-46,14 -92,0z" fill="#120808"/><path d="M110,238 l6,10 l6,-10" fill="#f6ecd2"/><path d="M124,238 l6,10 l6,-10" fill="#f6ecd2"/><path d="M138,238 l6,10 l6,-10" fill="#f6ecd2"/><path d="M152,238 l6,10 l6,-10" fill="#f6ecd2"/><path d="M166,238 l6,10 l6,-10" fill="#f6ecd2"/><path d="M180,238 l6,10 l6,-10" fill="#f6ecd2"/>

</svg>
