<svg xmlns="http://www.w3.org/2000/svg" viewBox="0 0 300 400" width="300" height="400">
<defs>
<linearGradient id="bg-mahito_609" x1="0" y1="0" x2="0.4" y2="1"><stop offset="0" stop-color="#33b56a"/><stop offset="0.55" stop-color="#0a3b23"/><stop offset="1" stop-color="#05080a"/></linearGradient>
<radialGradient id="glow-mahito_609" cx="0.5" cy="0.45" r="0.55"><stop offset="0" stop-color="#a6f0c2" stop-opacity="0.55"/><stop offset="1" stop-color="#a6f0c2" stop-opacity="0"/></radialGradient>
<linearGradient id="skin-mahito_609" x1="0" y1="0" x2="1" y2="1"><stop offset="0" stop-color="#e9cdb4"/><stop offset="1" stop-color="#b88f74"/></linearGradient>
<linearGradient id="coat-mahito_609" x1="0" y1="0" x2="0" y2="1"><stop offset="0" stop-color="#1b2027"/><stop offset="1" stop-color="#07090c"/></linearGradient>
</defs>
<rect width="300" height="400" fill="url(#bg-mahito_609)"/>
<path d="M198,295 Q320.5,318.97836410006664 419,309" stroke="#a6f0c2" stroke-opacity="0.11" stroke-width="13" stroke-linecap="round" fill="none"/><path d="M78,31 Q207.0,62.089677541998185 384,15" stroke="#a6f0c2" stroke-opacity="0.06" stroke-width="17" stroke-linecap="round" fill="none"/><path d="M148,188 Q289.5,128.68556756645927 441,75" stroke="#a6f0c2" stroke-opacity="0.10" stroke-width="31" stroke-linecap="round" fill="none"/><path d="M171,322 Q225.0,322.04802123498706 311,322" stroke="#a6f0c2" stroke-opacity="0.07" stroke-width="21" stroke-linecap="round" fill="none"/><path d="M139,58 Q217.0,51.53260070383547 355,-1" stroke="#a6f0c2" stroke-opacity="0.11" stroke-width="13" stroke-linecap="round" fill="none"/>
<circle cx="150" cy="190" r="150" fill="url(#glow-mahito_609)"/>
<text x="262" y="66" font-family="'Hiragino Mincho ProN','Yu Mincho','Noto Serif JP','IPAMincho',serif" font-size="44" font-weight="700" fill="#ffffff" fill-opacity="0.16" text-anchor="middle"><tspan x="262" dy="0">真</tspan><tspan x="262" dy="46">人</tspan></text>
<path d="M84,190 C74,240 80,290 70,330 L230,330 C220,290 226,240 216,190z" fill="#93a7bc"/>
<path d="M20,400 C30,320 90,290 150,290 C210,290 270,320 280,400z" fill="url(#coat-mahito_609)" stroke="#a6f0c2" stroke-opacity="0.55" stroke-width="3"/>
<path d="M118,292 L150,340 L182,292" fill="none" stroke="#c9a24e" stroke-width="3" stroke-opacity="0.8"/>
<circle cx="150" cy="318" r="5" fill="#c9a24e"/>
<rect x="130" y="240" width="40" height="56" fill="url(#skin-mahito_609)"/>
<ellipse cx="150" cy="196" rx="58" ry="66" fill="url(#skin-mahito_609)"/>
<path d="M88,206 C80,124 220,124 212,206 C204,170 186,154 150,152 C114,154 96,170 88,206z" fill="#93a7bc"/><path d="M118,190 l30,40 M126,196 l-6,6 M136,208 l-6,6 M146,222 l-6,6" stroke="#2a3340" stroke-width="2" fill="none"/>
<path d="M118,190 l26,6 M182,190 l-26,6" stroke="#15151b" stroke-width="4.5" stroke-linecap="round" fill="none"/><path d="M122,204 q10,-7 20,0 q-10,5 -20,0z M158,204 q10,-7 20,0 q-10,5 -20,0z" fill="#15151b"/><circle cx="133" cy="203" r="2.4" fill="#a6f0c2"/><circle cx="167" cy="203" r="2.4" fill="#a6f0c2"/><path d="M140,238 q10,4 20,0" stroke="#7a5446" stroke-width="2.5" fill="none" stroke-linecap="round"/>
<g transform="translate(44,352)" fill="none" stroke="#f1d98a" stroke-width="2.2" stroke-linejoin="round" stroke-linecap="round"><circle r="24" fill="#071418" fill-opacity="0.75" stroke="#c9a24e"/><path d="M-6,12 v-12 l-3,-5 a1.5,1.5 0 0 1 3,-1 l2,3 v-9 a1.5,1.5 0 0 1 3,0 v8 v-10 a1.5,1.5 0 0 1 3,0 v10 v-8 a1.5,1.5 0 0 1 3,0 v14 l-3,10z"/></g>
<g transform="translate(252,352)"><rect x="-22" y="-22" width="44" height="44" rx="4" fill="#8e1c1c" stroke="#f1d98a" stroke-opacity="0.6"/><text y="8" text-anchor="middle" font-family="Georgia,serif" font-size="22" font-weight="700" fill="#f6ead0">M</text></g>
<rect x="4" y="4" width="292" height="392" fill="none" stroke="#c9a24e" stroke-opacity="0.7" stroke-width="2"/>
</svg>
