<svg xmlns="http://www.w3.org/2000/svg" viewBox="0 0 300 400" width="300" height="400">
<defs>
<linearGradient id="bg-mai_303" x1="0" y1="0" x2="0.4" y2="1"><stop offset="0" stop-color="#e0453f"/><stop offset="0.55" stop-color="#4a0c0e"/><stop offset="1" stop-color="#05080a"/></linearGradient>
<radialGradient id="glow-mai_303" cx="0.5" cy="0.45" r="0.55"><stop offset="0" stop-color="#ffb0a4" stop-opacity="0.55"/><stop offset="1" stop-color="#ffb0a4" stop-opacity="0"/></radialGradient>
<linearGradient id="skin-mai_303" x1="0" y1="0" x2="1" y2="1"><stop offset="0" stop-color="#e9cdb4"/><stop offset="1" stop-color="#b88f74"/></linearGradient>
<linearGradient id="coat-mai_303" x1="0" y1="0" x2="0" y2="1"><stop offset="0" stop-color="#1b2027"/><stop offset="1" stop-color="#07090c"/></linearGradient>
</defs>
<rect width="300" height="400" fill="url(#bg-mai_303)"/>
<path d="M66,254 Q206.5,294.18762460298666 311,290" stroke="#ffb0a4" stroke-opacity="0.10" stroke-width="34" stroke-linecap="round" fill="none"/><path d="M77,319 Q158.0,362.8418228154653 225,341" stroke="#ffb0a4" stroke-opacity="0.05" stroke-width="14" stroke-linecap="round" fill="none"/><path d="M78,170 Q208.5,163.17013839587366 335,80" stroke="#ffb0a4" stroke-opacity="0.12" stroke-width="10" stroke-linecap="round" fill="none"/><path d="M122,62 Q272.5,46.50991329328116 395,39" stroke="#ffb0a4" stroke-opacity="0.11" stroke-width="31" stroke-linecap="round" fill="none"/><path d="M-35,282 Q83.5,184.0018487689625 248,164" stroke="#ffb0a4" stroke-opacity="0.13" stroke-width="32" stroke-linecap="round" fill="none"/>
<circle cx="150" cy="190" r="150" fill="url(#glow-mai_303)"/>
<text x="262" y="66" font-family="'Hiragino Mincho ProN','Yu Mincho','Noto Serif JP','IPAMincho',serif" font-size="44" font-weight="700" fill="#ffffff" fill-opacity="0.16" text-anchor="middle"><tspan x="262" dy="0">真</tspan><tspan x="262" dy="46">依</tspan></text>
<path d="M86,196 C80,250 92,268 110,268 L190,268 C208,268 220,250 214,196z" fill="#2c2c3a"/>
<path d="M20,400 C30,320 90,290 150,290 C210,290 270,320 280,400z" fill="url(#coat-mai_303)" stroke="#ffb0a4" stroke-opacity="0.55" stroke-width="3"/>
<path d="M118,292 L150,340 L182,292" fill="none" stroke="#c9a24e" stroke-width="3" stroke-opacity="0.8"/>
<circle cx="150" cy="318" r="5" fill="#c9a24e"/>
<rect x="130" y="240" width="40" height="56" fill="url(#skin-mai_303)"/>
<ellipse cx="150" cy="196" rx="58" ry="66" fill="url(#skin-mai_303)"/>
<path d="M86,214 C78,122 222,122 214,214 C206,176 186,158 150,156 C114,158 94,176 86,214z" fill="#2c2c3a"/>
<path d="M118,190 l26,6 M182,190 l-26,6" stroke="#15151b" stroke-width="4.5" stroke-linecap="round" fill="none"/><path d="M122,204 q10,-7 20,0 q-10,5 -20,0z M158,204 q10,-7 20,0 q-10,5 -20,0z" fill="#15151b"/><circle cx="133" cy="203" r="2.4" fill="#ffb0a4"/><circle cx="167" cy="203" r="2.4" fill="#ffb0a4"/><path d="M140,238 q10,4 20,0" stroke="#7a5446" stroke-width="2.5" fill="none" stroke-linecap="round"/>
<g transform="translate(44,352)" fill="none" stroke="#f1d98a" stroke-width="2.2" stroke-linejoin="round" stroke-linecap="round"><circle r="24" fill="#071418" fill-opacity="0.75" stroke="#c9a24e"/><path d="M-4,10 v-12 a4,7 0 0 1 8,0 v12z M-6,10 h12"/></g>
<g transform="translate(252,352)"><rect x="-22" y="-22" width="44" height="44" rx="4" fill="#8e1c1c" stroke="#f1d98a" stroke-opacity="0.6"/><text y="8" text-anchor="middle" font-family="Georgia,serif" font-size="22" font-weight="700" fill="#f6ead0">MZ</text></g>
<rect x="4" y="4" width="292" height="392" fill="none" stroke="#c9a24e" stroke-opacity="0.7" stroke-width="2"/>
</svg>
